<?xml version="1.0" encoding="utf-8"?>
<svg version="1.1"
	 id="svg2" inkscape:export-ydpi="16.601332" xmlns:inkscape="http://www.inkscape.org/namespaces/inkscape" xmlns:rdf="http://www.w3.org/1999/02/22-rdf-syntax-ns#" xmlns:sodipodi="http://sodipodi.sourceforge.net/DTD/sodipodi-0.dtd" xmlns:svg="http://www.w3.org/2000/svg"
	 xmlns="http://www.w3.org/2000/svg" xmlns:xlink="http://www.w3.org/1999/xlink" x="0px" y="0px" viewBox="0 0 2016.7 617"
	 style="enable-background:new 0 0 2016.7 617;" xml:space="preserve">
<style type="text/css">
	.st0{fill:#0C7ECF;}
	.st1{fill:#D30707;}
</style>
<g>
	<g>
		<path class="st0" d="M8.5,611L99,331.7h58.1L247.7,611h-52.5l-21.3-75.6H80.7L58.9,611H8.5z M101.6,462.4l-9.8,34.2h70.9
			l-9.8-34.2c-4-14.8-8.1-30-12.4-45.5c-4.3-15.5-8.4-31.1-12.4-46.8h-1.7c-4,15.7-8,31.2-12.2,46.8
			C110.1,432.4,105.9,447.6,101.6,462.4z"/>
		<path class="st0" d="M292.9,611V331.7h86.7c14.5,0,27.8,1.2,39.9,3.6s22.5,6.3,31.2,11.5c8.7,5.3,15.5,12.3,20.5,21.1
			c5,8.8,7.5,19.6,7.5,32.5c0,13.4-3.9,25.8-11.7,37.1c-7.8,11.4-20,19.2-36.5,23.5v1.7c20.2,3.4,35.7,10.5,46.5,21.3
			s16.2,25.8,16.2,44.8c0,14-2.6,26-7.9,36.3c-5.3,10.2-12.7,18.8-22.2,25.6s-20.8,11.9-33.7,15.2c-13,3.3-27.1,4.9-42.5,4.9h-94
			V611z M342.5,446.6h32.9c19.6,0,33.7-3.4,42.1-10.2c8.4-6.8,12.6-16.8,12.6-29.9c0-12.8-4.4-21.8-13.2-27.1
			c-8.8-5.3-22.4-7.9-40.6-7.9h-33.7L342.5,446.6L342.5,446.6z M342.5,571.3h39.3c20.5,0,36.1-3.6,46.8-10.9
			c10.7-7.3,16-18.9,16-34.8c0-14.8-5.2-25.4-15.6-31.8c-10.4-6.4-26.1-9.6-47.2-9.6h-39.3L342.5,571.3L342.5,571.3z"/>
		<path class="st0" d="M520.9,611l90.5-279.3h58.1L760.1,611h-52.5l-21.3-75.6h-93.1L571.3,611H520.9z M614,462.4l-9.8,34.2h70.9
			l-9.8-34.2c-4-14.8-8.1-30-12.4-45.5c-4.3-15.5-8.4-31.1-12.4-46.8h-1.7c-4,15.7-8,31.2-12.2,46.8
			C622.5,432.4,618.3,447.6,614,462.4z"/>
		<path class="st0" d="M806.2,611V331.7H898c15.4,0,29.5,1.4,42.5,4.3c13,2.8,24.1,7.7,33.5,14.5s16.8,15.7,22.2,26.7
			s8.1,24.6,8.1,40.8c0,15.4-2.7,28.8-8.1,40.1c-5.4,11.4-12.9,20.9-22.4,28.4s-20.8,13.1-33.7,16.7c-13,3.6-27,5.3-42.1,5.3h-42.3
			V611H806.2z M855.7,468.8h38.4c41,0,61.5-16.9,61.5-50.8c0-17.6-5.1-29.8-15.4-36.5c-10.2-6.7-25.6-10-46.1-10h-38.4V468.8z"/>
		<path class="st0" d="M1111.6,611V452.4h28.7l2.9,20h1c3.4-6.9,7.9-12.6,13.2-17.1c5.4-4.5,12.7-6.8,22-6.8
			c14.9,0,24.4,8.8,28.7,26.5c3.7-7.8,8.3-14.1,13.9-19.1c5.6-5,13-7.4,22.3-7.4c11.2,0,19.9,4.4,26,13.1c6.1,8.7,9.2,21.1,9.2,37
			V611h-35.9V501.2c0-14-4.2-21-12.6-21c-4.3,0-7.9,1.7-10.8,5s-6,8.3-9.2,15V611h-31V501.2c0-6.9-1-12.1-2.9-15.7
			c-1.9-3.6-5.2-5.3-9.7-5.3c-4.3,0-7.9,1.7-10.8,5s-5.9,8.3-8.9,15V611H1111.6z"/>
		<path class="st0" d="M1387.5,614.9c-10.3,0-20.3-1.8-30-5.5s-18.2-9-25.5-16.1s-13.2-15.8-17.6-26.2c-4.4-10.3-6.6-22.1-6.6-35.2
			c0-13.1,2.2-24.9,6.6-35.2s10.3-19.1,17.6-26.2c7.3-7.1,15.8-12.5,25.5-16.3s19.7-5.7,30-5.7s20.3,1.9,30,5.7
			c9.7,3.8,18.2,9.2,25.5,16.3s13.2,15.8,17.6,26.2c4.4,10.3,6.6,22.1,6.6,35.2c0,13.1-2.2,24.9-6.6,35.2s-10.3,19.1-17.6,26.2
			c-7.3,7.1-15.8,12.5-25.5,16.1S1397.8,614.9,1387.5,614.9z M1387.5,584.5c12.9,0,23-4.8,30.4-14.4c7.3-9.6,11-22.3,11-38.3
			c0-16.2-3.7-29-11-38.6s-17.4-14.4-30.4-14.4s-23,4.8-30.4,14.4c-7.3,9.6-11,22.4-11,38.6c0,15.9,3.7,28.7,11,38.3
			C1364.4,579.7,1374.6,584.5,1387.5,584.5z"/>
		<path class="st0" d="M1569.3,614.9c-10.1,0-19.4-1.9-27.8-5.7s-15.6-9.2-21.5-16.3s-10.5-15.8-13.7-26s-4.8-21.9-4.8-35
			c0-12.9,1.9-24.5,5.8-34.9s9.1-19.1,15.7-26.2c6.6-7.1,14.1-12.6,22.4-16.5c8.4-3.9,17.1-5.8,26.2-5.8s17,1.6,23.9,4.8
			c6.9,3.2,13.5,7.9,19.7,13.9h1l-1.9-26.8v-57.5h37.5v228H1621l-2.9-18.4h-1c-6.2,6.2-13.5,11.5-21.8,15.8
			C1587,612.7,1578.4,614.9,1569.3,614.9z M1578.4,584.2c13.1,0,25.1-6.3,35.9-19.1v-71.4c-5.6-5.4-11.2-9.2-16.8-11.3
			c-5.6-2.1-11.3-3.2-17.1-3.2c-5.6,0-10.8,1.2-15.7,3.6c-4.8,2.4-9.1,5.8-12.8,10.2c-3.7,4.4-6.6,9.9-8.7,16.3
			c-2.2,6.5-3.2,13.9-3.2,22.3c0,17.2,3.3,30.3,10,39.2C1556.6,579.7,1566.1,584.2,1578.4,584.2z"/>
		<path class="st0" d="M1784.8,614.9c-12.1,0-23.4-1.9-33.9-5.7c-10.6-3.8-19.8-9.2-27.6-16.3c-7.9-7.1-14.1-15.8-18.6-26.2
			c-4.5-10.3-6.8-22.1-6.8-35.2c0-12.9,2.3-24.5,6.8-34.7s10.6-18.9,18.2-26.2c7.6-7.2,16.4-12.7,26.2-16.5
			c9.8-3.8,20.1-5.7,30.8-5.7c11.8,0,22.3,1.9,31.3,5.7c9,3.8,16.7,8.9,22.9,15.5c6.2,6.6,11,14.5,14.2,23.7
			c3.2,9.3,4.8,19.4,4.8,30.4c0,3.7-0.2,7.2-0.5,10.5s-0.7,6.1-1.1,8.2H1735c2.2,14.9,8.1,25.8,17.8,32.9c9.7,7.1,22,10.7,36.8,10.7
			c8.4,0,16.2-1.2,23.3-3.6c7.1-2.4,14.2-5.6,21.3-9.7l12.6,23.3c-8.4,5.6-17.9,10.1-28.6,13.6
			C1807.5,613.1,1796.4,614.9,1784.8,614.9z M1780.9,477.3c-11,0-20.6,3.2-28.9,9.7s-13.6,16.2-16,29.1h84.3
			c-1.3-12.9-5.3-22.6-12.1-29.1C1801.4,480.5,1792.3,477.3,1780.9,477.3z"/>
		<path class="st0" d="M1968.9,614.9c-9.3,0-16.9-3.1-22.9-9.2c-6-6.1-9-13.9-9-23.4s3-17.3,9-23.4c6-6.1,13.7-9.2,22.9-9.2
			c9.3,0,16.9,3.1,22.9,9.2c6,6.1,9,13.9,9,23.4s-3,17.3-9,23.4C1985.8,611.8,1978.1,614.9,1968.9,614.9z"/>
	</g>
</g>
<sodipodi:namedview  bordercolor="#666666" borderopacity="1" gridtolerance="10" guidetolerance="10" id="namedview4" inkscape:current-layer="g10" inkscape:cx="303.572" inkscape:cy="574.48012" inkscape:guide-bbox="true" inkscape:pageopacity="0" inkscape:pageshadow="2" inkscape:window-height="875" inkscape:window-maximized="0" inkscape:window-width="1600" inkscape:window-x="0" inkscape:window-y="25" inkscape:zoom="0.52149125" objecttolerance="10" pagecolor="#ffffff" showgrid="false" showguides="true">
	</sodipodi:namedview>
<g>
	<g>
		<path class="st1" d="M22,164.3C22,73.9,75.3,18.8,146.4,18.8c34,0,60.7,16.5,77.1,34.6L204,76.6c-14.7-15.7-33.3-26.4-56.9-26.4
			c-53,0-88.2,43.4-88.2,113.2c0,70.4,33.6,114.6,86.8,114.6c26.7,0,47.1-11.6,65-31.5l19.5,22.4c-22.1,25.7-49.6,40.5-86,40.5
			C74.3,309.3,22,255.4,22,164.3z"/>
		<path class="st1" d="M263.4,200.7c0-69.3,45.3-109.2,96.2-109.2s96.2,39.9,96.2,109.2c0,68.7-45.3,108.6-96.2,108.6
			S263.4,269.4,263.4,200.7z M419.5,200.7c0-47.6-24.2-79.9-59.9-79.9s-59.9,32.4-59.9,79.9c0,47.6,24.2,79.4,59.9,79.4
			S419.5,248.3,419.5,200.7z"/>
		<path class="st1" d="M495.5,200.7c0-67.3,42.5-109.2,89.8-109.2c24.1,0,40,9.1,58.2,24L642,80V0h35.1v304.2h-29l-3-24.5h-1.2
			c-16.1,16.1-38.3,29.6-63,29.6C529.1,309.3,495.5,269.9,495.5,200.7z M642,251.5V142.7c-17.7-15.8-33.7-21.6-50.6-21.6
			c-33.2,0-59.6,32-59.6,79.3c0,49.8,20.6,79.4,57,79.4C607.9,279.8,624.6,270.4,642,251.5z"/>
		<path class="st1" d="M731.8,200.7c0-67.6,45.5-109.2,93.3-109.2c52.9,0,82.8,38,82.8,97.4c0,7.4-0.6,14.8-1.6,19.9H766.6
			c2.5,44,29.4,72.5,69,72.5c19.9,0,36.3-6.4,51.7-16.6l12.6,23c-18.2,11.9-40.3,21.5-68.5,21.5
			C775.9,309.3,731.8,268.9,731.8,200.7z M876.9,183.7c0-41.6-18.7-64.2-51.2-64.2c-29.2,0-55.3,23.4-59.5,64.2H876.9z"/>
		<path class="st1" d="M962.3,24h42.9l53.7,149.7c6.7,19.2,13.2,38.9,19.9,58.4h1.7c6.7-19.5,12.6-39.2,19.4-58.4L1153.1,24h42.9
			v280.3h-33.1V149.9c0-24.4,2.7-58.1,4.5-82.9h-1.7l-22.2,63.9l-52.8,145H1067l-53.1-145L991.8,67h-1.7c1.8,24.8,4.5,58.5,4.5,82.9
			v154.3h-32.3V24z"/>
		<path class="st1" d="M1263,31.3c0-13.8,10.6-22.7,24.3-22.7s24.3,8.9,24.3,22.7c0,13.3-10.6,22.7-24.3,22.7S1263,44.5,1263,31.3z
			 M1269.5,96.7h35.1v207.6h-35.1V96.7z"/>
		<path class="st1" d="M1374.5,96.7h29l3,37.8h1.2c14.4-26.3,35.7-42.9,59-42.9c9.2,0,15.6,1.2,22.2,4.3l-6.6,30.8
			c-7.1-2.2-11.8-3.4-20.1-3.4c-17.5,0-38.5,12.6-52.5,47.7v133.3h-35.1L1374.5,96.7L1374.5,96.7z"/>
		<path class="st1" d="M1522.7,96.7h29l3,37.8h1.2c14.4-26.3,35.7-42.9,59-42.9c9.2,0,15.6,1.2,22.2,4.3l-6.6,30.8
			c-7.1-2.2-11.8-3.4-20.1-3.4c-17.5,0-38.5,12.6-52.5,47.7v133.3h-35.1L1522.7,96.7L1522.7,96.7z"/>
		<path class="st1" d="M1655.4,200.7c0-69.3,45.3-109.2,96.2-109.2s96.2,39.9,96.2,109.2c0,68.7-45.3,108.6-96.2,108.6
			S1655.4,269.4,1655.4,200.7z M1811.5,200.7c0-47.6-24.2-79.9-59.9-79.9s-59.9,32.4-59.9,79.9c0,47.6,24.2,79.4,59.9,79.4
			S1811.5,248.3,1811.5,200.7z"/>
		<path class="st1" d="M1902.3,96.7h29l3,37.8h1.2c14.4-26.3,35.7-42.9,59-42.9c9.2,0,15.6,1.2,22.2,4.3l-6.6,30.8
			c-7.1-2.2-11.8-3.4-20.1-3.4c-17.5,0-38.5,12.6-52.5,47.7v133.3h-35.1L1902.3,96.7L1902.3,96.7z"/>
	</g>
</g>
</svg>
